<svg width="87" height="88" viewBox="0 0 87 88" fill="none" xmlns="http://www.w3.org/2000/svg">
<rect width="87" height="88" rx="43.5" fill="white"/>
<g filter="url(#filter0_dd_253_973)">
<path d="M27.75 67.25V62.0833C27.75 59.3428 28.8562 56.7144 30.8254 54.7766C32.7945 52.8387 35.4652 51.75 38.25 51.75H48.75C51.5348 51.75 54.2055 52.8387 56.1746 54.7766C58.1438 56.7144 59.25 59.3428 59.25 62.0833V67.25M33 31.0833C33 33.8239 34.1062 36.4522 36.0754 38.3901C38.0445 40.328 40.7152 41.4167 43.5 41.4167C46.2848 41.4167 48.9555 40.328 50.9246 38.3901C52.8938 36.4522 54 33.8239 54 31.0833C54 28.3428 52.8938 25.7144 50.9246 23.7766C48.9555 21.8387 46.2848 20.75 43.5 20.75C40.7152 20.75 38.0445 21.8387 36.0754 23.7766C34.1062 25.7144 33 28.3428 33 31.0833Z" stroke="#005561" stroke-width="3" stroke-linecap="round" stroke-linejoin="round"/>
</g>
<defs>
<filter id="filter0_dd_253_973" x="8" y="10" width="71" height="70" filterUnits="userSpaceOnUse" color-interpolation-filters="sRGB">
<feFlood flood-opacity="0" result="BackgroundImageFix"/>
<feColorMatrix in="SourceAlpha" type="matrix" values="0 0 0 0 0 0 0 0 0 0 0 0 0 0 0 0 0 0 127 0" result="hardAlpha"/>
<feMorphology radius="1" operator="dilate" in="SourceAlpha" result="effect1_dropShadow_253_973"/>
<feOffset dy="1"/>
<feGaussianBlur stdDeviation="1.5"/>
<feColorMatrix type="matrix" values="0 0 0 0 0 0 0 0 0 0 0 0 0 0 0 0 0 0 0.15 0"/>
<feBlend mode="normal" in2="BackgroundImageFix" result="effect1_dropShadow_253_973"/>
<feColorMatrix in="SourceAlpha" type="matrix" values="0 0 0 0 0 0 0 0 0 0 0 0 0 0 0 0 0 0 127 0" result="hardAlpha"/>
<feOffset dy="1"/>
<feGaussianBlur stdDeviation="1"/>
<feColorMatrix type="matrix" values="0 0 0 0 0 0 0 0 0 0 0 0 0 0 0 0 0 0 0.3 0"/>
<feBlend mode="normal" in2="effect1_dropShadow_253_973" result="effect2_dropShadow_253_973"/>
<feBlend mode="normal" in="SourceGraphic" in2="effect2_dropShadow_253_973" result="shape"/>
</filter>
</defs>
</svg>
