<svg width="20" height="21" viewBox="0 0 20 21" fill="none" xmlns="http://www.w3.org/2000/svg">
<path d="M4.16667 16.3333H5.35417L13.5 8.1875L12.3125 7L4.16667 15.1458V16.3333ZM2.5 18V14.4583L13.5 3.47917C13.6667 3.32639 13.8508 3.20833 14.0525 3.125C14.2542 3.04167 14.4658 3 14.6875 3C14.9092 3 15.1244 3.04167 15.3333 3.125C15.5422 3.20833 15.7228 3.33333 15.875 3.5L17.0208 4.66667C17.1875 4.81944 17.3092 5 17.3858 5.20833C17.4625 5.41667 17.5006 5.625 17.5 5.83333C17.5 6.05556 17.4619 6.2675 17.3858 6.46917C17.3097 6.67083 17.1881 6.85472 17.0208 7.02083L6.04167 18H2.5ZM12.8958 7.60417L12.3125 7L13.5 8.1875L12.8958 7.60417Z" fill="#FCFCFC"/>
</svg>
