<svg width="88" height="88" viewBox="0 0 88 88" fill="none" xmlns="http://www.w3.org/2000/svg">
<rect width="88" height="88" rx="44" fill="white"/>
<path d="M45.6429 55.769V39.9661H42.3571V55.769H45.6429ZM44 35.5576C44.5739 35.5576 45.0547 35.3927 45.4424 35.0628C45.828 34.733 46.0207 34.3248 46.0207 33.8384C46.0207 33.3501 45.8269 32.9411 45.4391 32.6112C45.0514 32.2813 44.5717 32.1173 44 32.1192C43.4283 32.1211 42.9486 32.286 42.5609 32.614C42.1731 32.942 41.9793 33.3511 41.9793 33.8412C41.9793 34.3314 42.1731 34.7395 42.5609 35.0656C42.9486 35.3918 43.4283 35.5558 44 35.5576ZM44 68.9972C37.3979 67.3292 31.914 63.9271 27.5484 58.7909C23.1828 53.6547 21 47.8671 21 41.4282V26.3102L44 19L67 26.3102V41.4282C67 47.8652 64.8172 53.6519 60.4516 58.7881C56.086 63.9243 50.6021 67.3255 44 68.9972ZM44 66.0312C49.6952 64.4937 54.4048 61.4187 58.1286 56.8061C61.8524 52.1936 63.7143 47.0685 63.7143 41.431V28.2195L44 21.9856L24.2857 28.2195V41.4282C24.2857 47.0657 26.1476 52.1908 29.8714 56.8033C33.5952 61.4159 38.3048 64.4937 44 66.0312Z" fill="#005561"/>
<path d="M45.6429 55.769V39.9661H42.3571V55.769H45.6429ZM44 35.5576C44.5739 35.5576 45.0547 35.3927 45.4424 35.0628C45.828 34.733 46.0207 34.3248 46.0207 33.8384C46.0207 33.3501 45.8269 32.9411 45.4391 32.6112C45.0514 32.2813 44.5717 32.1173 44 32.1192C43.4283 32.1211 42.9486 32.286 42.5609 32.614C42.1731 32.942 41.9793 33.3511 41.9793 33.8412C41.9793 34.3314 42.1731 34.7395 42.5609 35.0656C42.9486 35.3918 43.4283 35.5558 44 35.5576ZM44 68.9972C37.3979 67.3292 31.914 63.9271 27.5484 58.7909C23.1828 53.6547 21 47.8671 21 41.4282V26.3102L44 19L67 26.3102V41.4282C67 47.8652 64.8172 53.6519 60.4516 58.7881C56.086 63.9243 50.6021 67.3255 44 68.9972ZM44 66.0312C49.6952 64.4937 54.4048 61.4187 58.1286 56.8061C61.8524 52.1936 63.7143 47.0685 63.7143 41.431V28.2195L44 21.9856L24.2857 28.2195V41.4282C24.2857 47.0657 26.1476 52.1908 29.8714 56.8033C33.5952 61.4159 38.3048 64.4937 44 66.0312Z" stroke="black"/>
</svg>
